<svg id="Graphics" xmlns="http://www.w3.org/2000/svg" viewBox="0 0 82 79"><defs><style>.cls-1,.cls-2{fill:none;stroke-miterlimit:10;stroke-width:2px;}.cls-1{stroke:#222228;}.cls-2{stroke:#eb5424;}</style></defs><title>SSODashboard</title><rect class="cls-1" x="1" y="1" width="20" height="20" rx="3.72" ry="3.72"/><rect class="cls-1" x="31" y="1" width="20" height="20" rx="3.72" ry="3.72"/><rect class="cls-1" x="61" y="1" width="20" height="20" rx="3.72" ry="3.72"/><path class="cls-2" d="M1811.52,1598.91a11.92,11.92,0,0,0,.39-3A11.18,11.18,0,0,0,1801,1584.5a11,11,0,0,0-10.35,7.82,7.15,7.15,0,0,0-2.86-.6,7.61,7.61,0,0,0-7.43,7.11h-0.87a7.84,7.84,0,0,0,0,15.67h31A7.86,7.86,0,0,0,1811.52,1598.91Z" transform="translate(-1754 -1536.5)"/><line class="cls-1" x1="41" y1="44" x2="41" y2="26"/><polyline class="cls-1" points="11 26 11 35 71 35 71 26"/></svg>